<svg xmlns="http://www.w3.org/2000/svg" width="390" height="844" viewBox="0 0 390 844">
  <rect width="390" height="844" fill="#0A0E1A"/>

  <!-- Status Bar -->
  <text x="20" y="29" fill="#FFFFFF" font-size="12" font-family="system-ui,sans-serif" font-weight="600">9:41</text>
  <rect x="348" y="17" width="22" height="12" rx="2.5" fill="none" stroke="#FFFFFF" stroke-width="1.5" opacity="0.8"/>
  <rect x="370" y="21" width="3" height="4" rx="1" fill="#FFFFFF" opacity="0.6"/>
  <rect x="349.5" y="18.5" width="17" height="9" rx="1.5" fill="#FFFFFF" opacity="0.9"/>
  <rect x="322" y="25" width="3" height="4" rx="0.5" fill="#FFFFFF" opacity="0.8"/>
  <rect x="327" y="22" width="3" height="7" rx="0.5" fill="#FFFFFF" opacity="0.8"/>
  <rect x="332" y="19" width="3" height="10" rx="0.5" fill="#FFFFFF" opacity="0.8"/>
  <rect x="337" y="16" width="3" height="13" rx="0.5" fill="#FFFFFF" opacity="0.8"/>

  <!-- Header -->
  <text x="16" y="86" fill="#FFFFFF" font-size="26" font-family="system-ui,sans-serif" font-weight="800" letter-spacing="2">COMMUNITY</text>
  <text x="16" y="103" fill="#8B94A8" font-size="11" font-family="system-ui,sans-serif" letter-spacing="1">Friends &amp; Activity</text>

  <!-- Internal Tab Bar — ACTIVITY active -->
  <text x="76" y="138" fill="#00D9FF" font-size="11" font-family="system-ui,sans-serif" font-weight="700" letter-spacing="1.5" text-anchor="middle">ACTIVITY</text>
  <rect x="24" y="148" width="104" height="2" rx="1" fill="#00D9FF"/>
  <text x="195" y="138" fill="#4A5568" font-size="11" font-family="system-ui,sans-serif" font-weight="700" letter-spacing="1.5" text-anchor="middle">FRIENDS</text>
  <text x="314" y="138" fill="#4A5568" font-size="11" font-family="system-ui,sans-serif" font-weight="700" letter-spacing="1.5" text-anchor="middle">REQUESTS</text>
  <line x1="0" y1="150" x2="390" y2="150" stroke="#2D3748" stroke-width="1"/>

  <!-- Activity 1: SR7599 ran Storm Circuit -->
  <circle cx="36" cy="183" r="20" fill="#2D3748"/>
  <text x="36" y="188" fill="#00D9FF" font-size="13" font-family="system-ui,sans-serif" font-weight="700" text-anchor="middle">SR</text>
  <text x="68" y="169" fill="#FFFFFF" font-size="13" font-family="system-ui,sans-serif" font-weight="700">SR7599</text>
  <text x="68" y="185" fill="#8B94A8" font-size="12" font-family="system-ui,sans-serif">completed Storm Circuit</text>
  <text x="68" y="200" fill="#8B94A8" font-size="12" font-family="system-ui,sans-serif">4.8km @ 5:44/km</text>
  <text x="68" y="214" fill="#4A5568" font-size="11" font-family="system-ui,sans-serif">2h ago</text>
  <line x1="16" y1="228" x2="374" y2="228" stroke="#2D3748" stroke-width="1"/>

  <!-- Activity 2: SarahK unlocked Week Warrior -->
  <circle cx="36" cy="257" r="20" fill="#2D3748"/>
  <text x="36" y="262" fill="#00D9FF" font-size="13" font-family="system-ui,sans-serif" font-weight="700" text-anchor="middle">SA</text>
  <text x="68" y="243" fill="#FFFFFF" font-size="13" font-family="system-ui,sans-serif" font-weight="700">SarahK</text>
  <text x="68" y="259" fill="#8B94A8" font-size="12" font-family="system-ui,sans-serif">unlocked 'Week Warrior'</text>
  <text x="68" y="275" fill="#4A5568" font-size="11" font-family="system-ui,sans-serif">5h ago</text>
  <line x1="16" y1="289" x2="374" y2="289" stroke="#2D3748" stroke-width="1"/>

  <!-- Activity 3: AlexM ran Wasteland Rush -->
  <circle cx="36" cy="322" r="20" fill="#2D3748"/>
  <text x="36" y="327" fill="#00D9FF" font-size="13" font-family="system-ui,sans-serif" font-weight="700" text-anchor="middle">AL</text>
  <text x="68" y="308" fill="#FFFFFF" font-size="13" font-family="system-ui,sans-serif" font-weight="700">AlexM</text>
  <text x="68" y="324" fill="#8B94A8" font-size="12" font-family="system-ui,sans-serif">completed Wasteland Rush</text>
  <text x="68" y="340" fill="#8B94A8" font-size="12" font-family="system-ui,sans-serif">3.1km @ 6:45/km</text>
  <text x="68" y="354" fill="#4A5568" font-size="11" font-family="system-ui,sans-serif">1d ago</text>
  <line x1="16" y1="368" x2="374" y2="368" stroke="#2D3748" stroke-width="1"/>

  <!-- Activity 4: SR7599 unlocked Distance Warrior -->
  <circle cx="36" cy="396" r="20" fill="#2D3748"/>
  <text x="36" y="401" fill="#00D9FF" font-size="13" font-family="system-ui,sans-serif" font-weight="700" text-anchor="middle">SR</text>
  <text x="68" y="382" fill="#FFFFFF" font-size="13" font-family="system-ui,sans-serif" font-weight="700">SR7599</text>
  <text x="68" y="398" fill="#8B94A8" font-size="12" font-family="system-ui,sans-serif">unlocked 'Distance Warrior'</text>
  <text x="68" y="414" fill="#4A5568" font-size="11" font-family="system-ui,sans-serif">2d ago</text>
  <line x1="16" y1="428" x2="374" y2="428" stroke="#2D3748" stroke-width="1"/>

  <!-- Bottom Nav -->
  <rect x="0" y="784" width="390" height="60" fill="#0A0E1A"/>
  <line x1="0" y1="784" x2="390" y2="784" stroke="#2D3748" stroke-width="1"/>
  <circle cx="39" cy="803" r="4" fill="none" stroke="#8B94A8" stroke-width="1.5"/>
  <circle cx="39" cy="803" r="7.5" fill="none" stroke="#8B94A8" stroke-width="1.2"/>
  <circle cx="39" cy="803" r="2" fill="#8B94A8"/>
  <text x="39" y="828" fill="#8B94A8" font-size="9" font-family="system-ui,sans-serif" font-weight="600" text-anchor="middle">MISSIONS</text>
  <circle cx="117" cy="800" r="5.5" fill="none" stroke="#8B94A8" stroke-width="1.5"/>
  <path d="M117,806 L113,816" stroke="#8B94A8" stroke-width="1.5" stroke-linecap="round"/>
  <path d="M117,806 L121,816" stroke="#8B94A8" stroke-width="1.5" stroke-linecap="round"/>
  <text x="117" y="828" fill="#8B94A8" font-size="9" font-family="system-ui,sans-serif" font-weight="600" text-anchor="middle">MAP</text>
  <path d="M195,793 L202,797 L202,806 Q195,812 188,806 L188,797 Z" fill="none" stroke="#8B94A8" stroke-width="1.5"/>
  <text x="195" y="828" fill="#8B94A8" font-size="9" font-family="system-ui,sans-serif" font-weight="600" text-anchor="middle">PREP</text>
  <circle cx="268" cy="800" r="5" fill="#00D9FF"/>
  <path d="M262,813 Q268,808 274,813" fill="none" stroke="#00D9FF" stroke-width="1.8" stroke-linecap="round"/>
  <circle cx="278" cy="801" r="4" fill="none" stroke="#00D9FF" stroke-width="1.5"/>
  <path d="M273,813 Q278,809 283,813" fill="none" stroke="#00D9FF" stroke-width="1.5" stroke-linecap="round"/>
  <text x="273" y="828" fill="#00D9FF" font-size="9" font-family="system-ui,sans-serif" font-weight="600" text-anchor="middle">COMMUNITY</text>
  <circle cx="351" cy="800" r="5.5" fill="none" stroke="#8B94A8" stroke-width="1.5"/>
  <path d="M344,815 Q351,808 358,815" fill="none" stroke="#8B94A8" stroke-width="1.5" stroke-linecap="round"/>
  <text x="351" y="828" fill="#8B94A8" font-size="9" font-family="system-ui,sans-serif" font-weight="600" text-anchor="middle">PROFILE</text>
</svg>
