<svg xmlns="http://www.w3.org/2000/svg" width="390" height="844" viewBox="0 0 390 844">
  <!-- Background: dimmed friends list -->
  <rect width="390" height="844" fill="#0A0E1A"/>
  <g opacity="0.2">
    <text x="20" y="29" fill="#FFFFFF" font-size="12" font-family="system-ui,sans-serif" font-weight="600">9:41</text>
    <text x="16" y="86" fill="#FFFFFF" font-size="26" font-family="system-ui,sans-serif" font-weight="800" letter-spacing="2">COMMUNITY</text>
    <text x="16" y="103" fill="#8B94A8" font-size="11" font-family="system-ui,sans-serif" letter-spacing="1">Friends &amp; Activity</text>
    <line x1="0" y1="150" x2="390" y2="150" stroke="#2D3748" stroke-width="1"/>
    <circle cx="44" cy="186" r="22" fill="#2D3748"/>
    <text x="82" y="182" fill="#FFFFFF" font-size="14" font-family="system-ui,sans-serif" font-weight="700">SR7599</text>
    <circle cx="44" cy="253" r="22" fill="#2D3748"/>
    <text x="82" y="249" fill="#FFFFFF" font-size="14" font-family="system-ui,sans-serif" font-weight="700">SarahK</text>
    <circle cx="44" cy="321" r="22" fill="#2D3748"/>
    <text x="82" y="317" fill="#FFFFFF" font-size="14" font-family="system-ui,sans-serif" font-weight="700">AlexM</text>
  </g>

  <!-- Dark overlay -->
  <rect width="390" height="844" fill="rgba(0,0,0,0.7)"/>

  <!-- Bottom Sheet (rounded top corners) -->
  <rect x="0" y="358" width="390" height="426" rx="16" fill="#161B2E"/>
  <rect x="0" y="374" width="390" height="410" fill="#161B2E"/>
  <rect x="0" y="358" width="1" height="426" fill="#2D3748"/>
  <rect x="389" y="358" width="1" height="426" fill="#2D3748"/>

  <!-- Sheet handle -->
  <rect x="171" y="366" width="48" height="4" rx="2" fill="#2D3748"/>

  <!-- Sheet header -->
  <line x1="0" y1="390" x2="390" y2="390" stroke="#2D3748" stroke-width="1"/>
  <text x="16" y="378" fill="#FFFFFF" font-size="16" font-family="system-ui,sans-serif" font-weight="700" letter-spacing="0.5">Add Friend</text>
  <!-- X close button -->
  <line x1="360" y1="368" x2="372" y2="380" stroke="#8B94A8" stroke-width="2" stroke-linecap="round"/>
  <line x1="372" y1="368" x2="360" y2="380" stroke="#8B94A8" stroke-width="2" stroke-linecap="round"/>

  <!-- Search input -->
  <rect x="16" y="402" width="358" height="44" rx="8" fill="#0A0E1A" stroke="#2D3748" stroke-width="1"/>
  <circle cx="35" cy="424" r="7" fill="none" stroke="#4A5568" stroke-width="1.5"/>
  <line x1="40" y1="429" x2="46" y2="435" stroke="#4A5568" stroke-width="1.5" stroke-linecap="round"/>
  <text x="56" y="429" fill="#FFFFFF" font-size="14" font-family="system-ui,sans-serif">storm</text>
  <rect x="98" y="416" width="1.5" height="16" fill="#00D9FF" opacity="0.9"/>

  <!-- Result 1: StormRider99 — addable -->
  <circle cx="44" cy="484" r="20" fill="#2D3748"/>
  <text x="44" y="489" fill="#00D9FF" font-size="13" font-family="system-ui,sans-serif" font-weight="700" text-anchor="middle">ST</text>
  <text x="78" y="481" fill="#FFFFFF" font-size="14" font-family="system-ui,sans-serif" font-weight="600">StormRider99</text>
  <rect x="272" y="470" width="90" height="28" rx="6" fill="rgba(0,217,255,0.1)" stroke="#00D9FF" stroke-width="1"/>
  <text x="317" y="488" fill="#00D9FF" font-size="12" font-family="system-ui,sans-serif" font-weight="700" text-anchor="middle">Add Friend</text>
  <line x1="16" y1="505" x2="374" y2="505" stroke="#2D3748" stroke-width="1"/>

  <!-- Result 2: StormChaser — already friends -->
  <circle cx="44" cy="542" r="20" fill="#2D3748"/>
  <text x="44" y="547" fill="#00D9FF" font-size="13" font-family="system-ui,sans-serif" font-weight="700" text-anchor="middle">SC</text>
  <text x="78" y="539" fill="#FFFFFF" font-size="14" font-family="system-ui,sans-serif" font-weight="600">StormChaser</text>
  <rect x="268" y="528" width="84" height="28" rx="6" fill="transparent" stroke="#4A5568" stroke-width="1"/>
  <text x="310" y="546" fill="#4A5568" font-size="12" font-family="system-ui,sans-serif" font-weight="700" text-anchor="middle">Friends &#10003;</text>
  <line x1="16" y1="563" x2="374" y2="563" stroke="#2D3748" stroke-width="1"/>

  <!-- Result 3: StormKing — request sent -->
  <circle cx="44" cy="600" r="20" fill="#2D3748"/>
  <text x="44" y="605" fill="#00D9FF" font-size="13" font-family="system-ui,sans-serif" font-weight="700" text-anchor="middle">SK</text>
  <text x="78" y="597" fill="#FFFFFF" font-size="14" font-family="system-ui,sans-serif" font-weight="600">StormKing</text>
  <rect x="252" y="586" width="100" height="28" rx="6" fill="transparent" stroke="#4A5568" stroke-width="1"/>
  <text x="302" y="604" fill="#4A5568" font-size="12" font-family="system-ui,sans-serif" font-weight="700" text-anchor="middle">Request Sent</text>

  <!-- Bottom Nav -->
  <rect x="0" y="784" width="390" height="60" fill="#0A0E1A"/>
  <line x1="0" y1="784" x2="390" y2="784" stroke="#2D3748" stroke-width="1"/>
  <circle cx="39" cy="803" r="4" fill="none" stroke="#8B94A8" stroke-width="1.5"/>
  <circle cx="39" cy="803" r="7.5" fill="none" stroke="#8B94A8" stroke-width="1.2"/>
  <circle cx="39" cy="803" r="2" fill="#8B94A8"/>
  <text x="39" y="828" fill="#8B94A8" font-size="9" font-family="system-ui,sans-serif" font-weight="600" text-anchor="middle">MISSIONS</text>
  <circle cx="117" cy="800" r="5.5" fill="none" stroke="#8B94A8" stroke-width="1.5"/>
  <path d="M117,806 L113,816" stroke="#8B94A8" stroke-width="1.5" stroke-linecap="round"/>
  <path d="M117,806 L121,816" stroke="#8B94A8" stroke-width="1.5" stroke-linecap="round"/>
  <text x="117" y="828" fill="#8B94A8" font-size="9" font-family="system-ui,sans-serif" font-weight="600" text-anchor="middle">MAP</text>
  <path d="M195,793 L202,797 L202,806 Q195,812 188,806 L188,797 Z" fill="none" stroke="#8B94A8" stroke-width="1.5"/>
  <text x="195" y="828" fill="#8B94A8" font-size="9" font-family="system-ui,sans-serif" font-weight="600" text-anchor="middle">PREP</text>
  <circle cx="268" cy="800" r="5" fill="#00D9FF"/>
  <path d="M262,813 Q268,808 274,813" fill="none" stroke="#00D9FF" stroke-width="1.8" stroke-linecap="round"/>
  <circle cx="278" cy="801" r="4" fill="none" stroke="#00D9FF" stroke-width="1.5"/>
  <path d="M273,813 Q278,809 283,813" fill="none" stroke="#00D9FF" stroke-width="1.5" stroke-linecap="round"/>
  <text x="273" y="828" fill="#00D9FF" font-size="9" font-family="system-ui,sans-serif" font-weight="600" text-anchor="middle">COMMUNITY</text>
  <circle cx="351" cy="800" r="5.5" fill="none" stroke="#8B94A8" stroke-width="1.5"/>
  <path d="M344,815 Q351,808 358,815" fill="none" stroke="#8B94A8" stroke-width="1.5" stroke-linecap="round"/>
  <text x="351" y="828" fill="#8B94A8" font-size="9" font-family="system-ui,sans-serif" font-weight="600" text-anchor="middle">PROFILE</text>
</svg>
