<svg xmlns="http://www.w3.org/2000/svg" width="390" height="844" viewBox="0 0 390 844">
  <rect width="390" height="844" fill="#0A0E1A"/>

  <!-- Status Bar -->
  <text x="20" y="29" fill="#FFFFFF" font-size="12" font-family="system-ui,sans-serif" font-weight="600">9:41</text>
  <rect x="348" y="17" width="22" height="12" rx="2.5" fill="none" stroke="#FFFFFF" stroke-width="1.5" opacity="0.8"/>
  <rect x="370" y="21" width="3" height="4" rx="1" fill="#FFFFFF" opacity="0.6"/>
  <rect x="349.5" y="18.5" width="17" height="9" rx="1.5" fill="#FFFFFF" opacity="0.9"/>
  <rect x="322" y="25" width="3" height="4" rx="0.5" fill="#FFFFFF" opacity="0.8"/>
  <rect x="327" y="22" width="3" height="7" rx="0.5" fill="#FFFFFF" opacity="0.8"/>
  <rect x="332" y="19" width="3" height="10" rx="0.5" fill="#FFFFFF" opacity="0.8"/>
  <rect x="337" y="16" width="3" height="13" rx="0.5" fill="#FFFFFF" opacity="0.8"/>

  <!-- Header -->
  <text x="16" y="86" fill="#FFFFFF" font-size="26" font-family="system-ui,sans-serif" font-weight="800" letter-spacing="2">COMMUNITY</text>
  <text x="16" y="103" fill="#8B94A8" font-size="11" font-family="system-ui,sans-serif" letter-spacing="1">Friends &amp; Activity</text>

  <!-- Internal Tab Bar — FRIENDS active -->
  <text x="76" y="138" fill="#4A5568" font-size="11" font-family="system-ui,sans-serif" font-weight="700" letter-spacing="1.5" text-anchor="middle">ACTIVITY</text>
  <text x="195" y="138" fill="#00D9FF" font-size="11" font-family="system-ui,sans-serif" font-weight="700" letter-spacing="1.5" text-anchor="middle">FRIENDS</text>
  <rect x="143" y="148" width="104" height="2" rx="1" fill="#00D9FF"/>
  <text x="314" y="138" fill="#4A5568" font-size="11" font-family="system-ui,sans-serif" font-weight="700" letter-spacing="1.5" text-anchor="middle">REQUESTS</text>
  <line x1="0" y1="150" x2="390" y2="150" stroke="#2D3748" stroke-width="1"/>

  <!-- Friend 1: SR7599 — running -->
  <circle cx="44" cy="186" r="22" fill="#2D3748"/>
  <text x="44" y="191" fill="#00D9FF" font-size="14" font-family="system-ui,sans-serif" font-weight="700" text-anchor="middle">SR</text>
  <text x="82" y="182" fill="#FFFFFF" font-size="14" font-family="system-ui,sans-serif" font-weight="700">SR7599</text>
  <text x="82" y="198" fill="#00D9FF" font-size="12" font-family="system-ui,sans-serif" font-weight="600">● Running</text>
  <text x="374" y="189" fill="#8B94A8" font-size="12" font-family="system-ui,sans-serif" font-weight="600" text-anchor="end">Lv 12</text>
  <line x1="16" y1="219" x2="374" y2="219" stroke="#2D3748" stroke-width="1"/>

  <!-- Friend 2: SarahK — online -->
  <circle cx="44" cy="253" r="22" fill="#2D3748"/>
  <text x="44" y="259" fill="#00D9FF" font-size="14" font-family="system-ui,sans-serif" font-weight="700" text-anchor="middle">SA</text>
  <text x="82" y="249" fill="#FFFFFF" font-size="14" font-family="system-ui,sans-serif" font-weight="700">SarahK</text>
  <text x="82" y="265" fill="#00FF88" font-size="12" font-family="system-ui,sans-serif" font-weight="600">&#9685; Online</text>
  <text x="374" y="257" fill="#8B94A8" font-size="12" font-family="system-ui,sans-serif" font-weight="600" text-anchor="end">Lv 8</text>
  <line x1="16" y1="287" x2="374" y2="287" stroke="#2D3748" stroke-width="1"/>

  <!-- Friend 3: AlexM — offline -->
  <circle cx="44" cy="321" r="22" fill="#2D3748"/>
  <text x="44" y="327" fill="#00D9FF" font-size="14" font-family="system-ui,sans-serif" font-weight="700" text-anchor="middle">AL</text>
  <text x="82" y="317" fill="#FFFFFF" font-size="14" font-family="system-ui,sans-serif" font-weight="700">AlexM</text>
  <text x="82" y="333" fill="#4A5568" font-size="12" font-family="system-ui,sans-serif" font-weight="600">&#9675; Offline</text>
  <text x="374" y="325" fill="#8B94A8" font-size="12" font-family="system-ui,sans-serif" font-weight="600" text-anchor="end">Lv 5</text>
  <line x1="16" y1="355" x2="374" y2="355" stroke="#2D3748" stroke-width="1"/>

  <!-- FAB: + Add Friend -->
  <rect x="258" y="726" width="116" height="40" rx="20" fill="#00D9FF"/>
  <text x="316" y="751" fill="#0A0E1A" font-size="13" font-family="system-ui,sans-serif" font-weight="800" text-anchor="middle" letter-spacing="0.5">+ Add Friend</text>

  <!-- Bottom Nav -->
  <rect x="0" y="784" width="390" height="60" fill="#0A0E1A"/>
  <line x1="0" y1="784" x2="390" y2="784" stroke="#2D3748" stroke-width="1"/>
  <circle cx="39" cy="803" r="4" fill="none" stroke="#8B94A8" stroke-width="1.5"/>
  <circle cx="39" cy="803" r="7.5" fill="none" stroke="#8B94A8" stroke-width="1.2"/>
  <circle cx="39" cy="803" r="2" fill="#8B94A8"/>
  <text x="39" y="828" fill="#8B94A8" font-size="9" font-family="system-ui,sans-serif" font-weight="600" text-anchor="middle">MISSIONS</text>
  <circle cx="117" cy="800" r="5.5" fill="none" stroke="#8B94A8" stroke-width="1.5"/>
  <path d="M117,806 L113,816" stroke="#8B94A8" stroke-width="1.5" stroke-linecap="round"/>
  <path d="M117,806 L121,816" stroke="#8B94A8" stroke-width="1.5" stroke-linecap="round"/>
  <text x="117" y="828" fill="#8B94A8" font-size="9" font-family="system-ui,sans-serif" font-weight="600" text-anchor="middle">MAP</text>
  <path d="M195,793 L202,797 L202,806 Q195,812 188,806 L188,797 Z" fill="none" stroke="#8B94A8" stroke-width="1.5"/>
  <text x="195" y="828" fill="#8B94A8" font-size="9" font-family="system-ui,sans-serif" font-weight="600" text-anchor="middle">PREP</text>
  <circle cx="268" cy="800" r="5" fill="#00D9FF"/>
  <path d="M262,813 Q268,808 274,813" fill="none" stroke="#00D9FF" stroke-width="1.8" stroke-linecap="round"/>
  <circle cx="278" cy="801" r="4" fill="none" stroke="#00D9FF" stroke-width="1.5"/>
  <path d="M273,813 Q278,809 283,813" fill="none" stroke="#00D9FF" stroke-width="1.5" stroke-linecap="round"/>
  <text x="273" y="828" fill="#00D9FF" font-size="9" font-family="system-ui,sans-serif" font-weight="600" text-anchor="middle">COMMUNITY</text>
  <circle cx="351" cy="800" r="5.5" fill="none" stroke="#8B94A8" stroke-width="1.5"/>
  <path d="M344,815 Q351,808 358,815" fill="none" stroke="#8B94A8" stroke-width="1.5" stroke-linecap="round"/>
  <text x="351" y="828" fill="#8B94A8" font-size="9" font-family="system-ui,sans-serif" font-weight="600" text-anchor="middle">PROFILE</text>
</svg>
